<svg xmlns="http://www.w3.org/2000/svg" width="217.438" height="94.5" viewBox="0 0 217.438 94.5">
<g transform="translate(-145)"><g transform="translate(145.334)"><path d="M0,0H217.438V94.5H0Z" transform="translate(-0.333)" fill="#21314d"/></g><g transform="translate(-857.924 -455.868)"><path d="M1112.323,534.508H1106.6V522.736a3.225,3.225,0,0,0-6.451,0v11.772h-5.722V522.736a8.947,8.947,0,0,1,17.894,0v11.772Z" transform="translate(-33.502 -19.943)" fill="#fff"/><path d="M1178.129,527.019a10.957,10.957,0,0,1-3.854,5.644,11.164,11.164,0,0,1-10.56,1.244,10.129,10.129,0,0,1-3.408-2.414,10.7,10.7,0,0,1-2.2-3.448,10.932,10.932,0,0,1-.746-4.008,10.21,10.21,0,0,1,.787-3.966,10.763,10.763,0,0,1,2.269-3.378,10.461,10.461,0,0,1,3.384-2.349,10.129,10.129,0,0,1,4-.783,10.471,10.471,0,0,1,6.449,2.013,11.378,11.378,0,0,1,3.877,5.816H1171.9a4.107,4.107,0,0,0-1.65-1.58,5.328,5.328,0,0,0-2.489-.545,4.483,4.483,0,0,0-3.286,1.351,4.863,4.863,0,0,0-1.3,3.421,5.047,5.047,0,0,0,1.323,3.625,5.081,5.081,0,0,0,5.625.834,4.9,4.9,0,0,0,1.7-1.477h6.3Z" transform="translate(-76.97 -19.785)" fill="#fff"/><path d="M1231.524,516.933a10.831,10.831,0,0,1,3.426-2.321,10.139,10.139,0,0,1,3.957-.811,10.934,10.934,0,0,1,4.045.741,10.679,10.679,0,0,1,5.811,5.648,10.121,10.121,0,0,1,.844,4.013,11.015,11.015,0,0,1-.755,4.143,10.066,10.066,0,0,1-2.265,3.388,10.61,10.61,0,0,1-3.439,2.335,10.755,10.755,0,0,1-4.166.8,10.531,10.531,0,0,1-4.162-.792,10.126,10.126,0,0,1-3.407-2.414,10.436,10.436,0,0,1-2.2-3.4,10.756,10.756,0,0,1-.745-3.985,10.3,10.3,0,0,1,.787-3.98A10.444,10.444,0,0,1,1231.524,516.933Zm7.494,12.34a4.635,4.635,0,0,0,3.346-1.44,5,5,0,0,0,1.389-3.481,5.058,5.058,0,0,0-1.389-3.514,4.6,4.6,0,0,0-6.692,0,5.056,5.056,0,0,0-1.389,3.514,4.992,4.992,0,0,0,1.4,3.481A4.643,4.643,0,0,0,1239.018,529.273Z" transform="translate(-126.08 -19.952)" fill="#fff"/><path d="M1301.894,525.068v9.441h5.722v-9.441a5.563,5.563,0,0,1,5.557-5.557v-5.722a11.292,11.292,0,0,0-11.279,11.279Z" transform="translate(-176.796 -19.943)" fill="#fff"/><path d="M1355.583,509.89V504h-4.215v-4.382h-5.722v25.1h5.722V509.89h4.215Z" transform="translate(-207.015 -10.158)" fill="#fff"/><path d="M1058.113,515.6v-2.176h-12.189v5.886h6.467v14.945h5.722V515.6Z" transform="translate(0 -19.694)" fill="#fff"/><circle cx="2.919" cy="2.919" r="2.919" transform="translate(1052.45 484.915)" fill="#fff"/><path d="M1400.083,528.064V513.23h-4.964v1.577a10.111,10.111,0,0,0-1.66-.842,10.842,10.842,0,0,0-4.012-.735,10.057,10.057,0,0,0-3.925.8,10.737,10.737,0,0,0-3.4,2.3,10.349,10.349,0,0,0-2.251,3.337,10.207,10.207,0,0,0-.781,3.947,10.668,10.668,0,0,0,.74,3.952,10.355,10.355,0,0,0,2.182,3.369,10.04,10.04,0,0,0,3.38,2.394,10.443,10.443,0,0,0,4.127.786,10.663,10.663,0,0,0,4.132-.791,10.02,10.02,0,0,0,1.653-.881v1.5h8.407v-5.886Zm-7.206-.917a4.555,4.555,0,0,1-6.624,0,4.95,4.95,0,0,1-1.392-3.453,5.016,5.016,0,0,1,1.378-3.485,4.56,4.56,0,0,1,6.637,0,5.015,5.015,0,0,1,1.378,3.485A4.959,4.959,0,0,1,1392.876,527.147Z" transform="translate(-230.116 -19.557)" fill="#fff"/></g></g></svg>